<svg width="20" height="20" viewBox="0 0 20 20" fill="none" xmlns="http://www.w3.org/2000/svg">
<path d="M16.2493 10.4173C16.2493 9.26732 17.1827 8.33398 18.3327 8.33398V7.50065C18.3327 4.16732 17.4993 3.33398 14.166 3.33398H5.83268C2.49935 3.33398 1.66602 4.16732 1.66602 7.50065V7.91732C2.81602 7.91732 3.74935 8.85065 3.74935 10.0007C3.74935 11.1507 2.81602 12.084 1.66602 12.084V12.5007C1.66602 15.834 2.49935 16.6673 5.83268 16.6673H14.166C17.4993 16.6673 18.3327 15.834 18.3327 12.5007C17.1827 12.5007 16.2493 11.5673 16.2493 10.4173Z" stroke="white" stroke-linecap="round" stroke-linejoin="round"/>
<path d="M8.33398 3.33398L8.33398 16.6673" stroke="white" stroke-linecap="round" stroke-linejoin="round" stroke-dasharray="4 4"/>
</svg>
