<svg width="30" height="30" viewBox="0 0 30 30" fill="none" xmlns="http://www.w3.org/2000/svg">
<path d="M27.7024 7.06991C26.7481 7.49203 25.7361 7.76925 24.6999 7.89241C25.7921 7.2392 26.6095 6.21118 26.9999 4.99991C25.9749 5.60991 24.8511 6.03741 23.6799 6.26866C22.8931 5.42688 21.8503 4.86861 20.7136 4.68064C19.5768 4.49267 18.4098 4.68552 17.394 5.22922C16.3781 5.77293 15.5704 6.63701 15.0963 7.68715C14.6222 8.73729 14.5083 9.91463 14.7724 11.0362C12.6938 10.932 10.6603 10.3918 8.80399 9.45074C6.94769 8.50966 5.31004 7.18872 3.99738 5.57366C3.53275 6.37172 3.28858 7.27894 3.28988 8.20241C3.28988 10.0149 4.21238 11.6162 5.61488 12.5537C4.78489 12.5275 3.97317 12.3034 3.24738 11.8999V11.9649C3.24763 13.172 3.66534 14.3419 4.42969 15.2762C5.19404 16.2105 6.25799 16.8518 7.44113 17.0912C6.67065 17.3 5.86277 17.3307 5.07863 17.1812C5.41222 18.2202 6.06239 19.1289 6.93812 19.78C7.81385 20.4312 8.87129 20.7922 9.96238 20.8124C8.87798 21.6641 7.63635 22.2936 6.30848 22.6651C4.98061 23.0366 3.59254 23.1427 2.22363 22.9774C4.61326 24.5142 7.395 25.3301 10.2361 25.3274C19.8524 25.3274 25.1111 17.3612 25.1111 10.4524C25.1111 10.2274 25.1049 9.99991 25.0949 9.77741C26.1185 9.03762 27.0019 8.12118 27.7036 7.07116L27.7024 7.06991Z" fill="#BBBBBB"/>
</svg>
