<svg width="18" height="12" viewBox="0 0 18 12" fill="none" xmlns="http://www.w3.org/2000/svg">
<path d="M17.3307 2.58928C17.3307 2.58928 17.1646 1.41294 16.6533 0.896418C16.0059 0.216607 15.282 0.213274 14.95 0.173285C12.5727 -9.53409e-08 9.00332 0 9.00332 0H8.99668C8.99668 0 5.42734 -9.53409e-08 3.05 0.173285C2.71797 0.213274 1.99414 0.216607 1.34668 0.896418C0.835352 1.41294 0.672656 2.58928 0.672656 2.58928C0.672656 2.58928 0.5 3.97223 0.5 5.35185V6.64482C0.5 8.02444 0.669336 9.40739 0.669336 9.40739C0.669336 9.40739 0.835352 10.5837 1.34336 11.1002C1.99082 11.7801 2.84082 11.7567 3.21934 11.83C4.58066 11.96 9 12 9 12C9 12 12.5727 11.9933 14.95 11.8234C15.282 11.7834 16.0059 11.7801 16.6533 11.1002C17.1646 10.5837 17.3307 9.40739 17.3307 9.40739C17.3307 9.40739 17.5 8.02777 17.5 6.64482V5.35185C17.5 3.97223 17.3307 2.58928 17.3307 2.58928ZM7.24356 8.21438V3.41905L11.8355 5.82505L7.24356 8.21438Z" fill="white"/>
</svg>
