<svg width="30" height="30" viewBox="0 0 30 30" fill="none" xmlns="http://www.w3.org/2000/svg">
<path d="M15 11.25C14.0054 11.25 13.0516 11.6451 12.3483 12.3483C11.6451 13.0516 11.25 14.0054 11.25 15C11.25 15.9946 11.6451 16.9484 12.3483 17.6517C13.0516 18.3549 14.0054 18.75 15 18.75C15.9946 18.75 16.9484 18.3549 17.6517 17.6517C18.3549 16.9484 18.75 15.9946 18.75 15C18.75 14.0054 18.3549 13.0516 17.6517 12.3483C16.9484 11.6451 15.9946 11.25 15 11.25ZM15 8.75C16.6576 8.75 18.2473 9.40848 19.4194 10.5806C20.5915 11.7527 21.25 13.3424 21.25 15C21.25 16.6576 20.5915 18.2473 19.4194 19.4194C18.2473 20.5915 16.6576 21.25 15 21.25C13.3424 21.25 11.7527 20.5915 10.5806 19.4194C9.40848 18.2473 8.75 16.6576 8.75 15C8.75 13.3424 9.40848 11.7527 10.5806 10.5806C11.7527 9.40848 13.3424 8.75 15 8.75ZM23.125 8.4375C23.125 8.8519 22.9604 9.24933 22.6674 9.54235C22.3743 9.83538 21.9769 10 21.5625 10C21.1481 10 20.7507 9.83538 20.4576 9.54235C20.1646 9.24933 20 8.8519 20 8.4375C20 8.0231 20.1646 7.62567 20.4576 7.33265C20.7507 7.03962 21.1481 6.875 21.5625 6.875C21.9769 6.875 22.3743 7.03962 22.6674 7.33265C22.9604 7.62567 23.125 8.0231 23.125 8.4375ZM15 5C11.9075 5 11.4025 5.00875 9.96375 5.0725C8.98375 5.11875 8.32625 5.25 7.71625 5.4875C7.17375 5.6975 6.7825 5.94875 6.36625 6.36625C5.97501 6.74425 5.67419 7.20573 5.48625 7.71625C5.24875 8.32875 5.1175 8.985 5.0725 9.96375C5.0075 11.3438 5 11.8263 5 15C5 18.0925 5.00875 18.5975 5.0725 20.0362C5.11875 21.015 5.25 21.6737 5.48625 22.2825C5.69875 22.8263 5.94875 23.2175 6.36375 23.6325C6.785 24.0525 7.17625 24.3037 7.71375 24.5112C8.33125 24.75 8.98875 24.8825 9.96375 24.9275C11.3438 24.9925 11.8263 25 15 25C18.0925 25 18.5975 24.9912 20.0362 24.9275C21.0138 24.8812 21.6725 24.75 22.2825 24.5138C22.8237 24.3025 23.2175 24.0513 23.6325 23.6362C24.0538 23.215 24.305 22.8238 24.5125 22.2863C24.75 21.67 24.8825 21.0112 24.9275 20.0362C24.9925 18.6562 25 18.1737 25 15C25 11.9075 24.9912 11.4025 24.9275 9.96375C24.8812 8.98625 24.75 8.32625 24.5125 7.71625C24.3241 7.20625 24.0238 6.74495 23.6337 6.36625C23.2559 5.97481 22.7944 5.67396 22.2837 5.48625C21.6712 5.24875 21.0138 5.1175 20.0362 5.0725C18.6562 5.0075 18.1737 5 15 5ZM15 2.5C18.3962 2.5 18.82 2.5125 20.1525 2.575C21.4837 2.6375 22.39 2.84625 23.1875 3.15625C24.0125 3.47375 24.7075 3.90375 25.4025 4.5975C26.0381 5.22237 26.5299 5.97824 26.8438 6.8125C27.1525 7.60875 27.3625 8.51625 27.425 9.8475C27.4838 11.18 27.5 11.6038 27.5 15C27.5 18.3962 27.4875 18.82 27.425 20.1525C27.3625 21.4837 27.1525 22.39 26.8438 23.1875C26.5308 24.0222 26.0389 24.7783 25.4025 25.4025C24.7775 26.0379 24.0216 26.5297 23.1875 26.8438C22.3912 27.1525 21.4837 27.3625 20.1525 27.425C18.82 27.4838 18.3962 27.5 15 27.5C11.6038 27.5 11.18 27.4875 9.8475 27.425C8.51625 27.3625 7.61 27.1525 6.8125 26.8438C5.97791 26.5306 5.22191 26.0387 4.5975 25.4025C3.96176 24.7777 3.46991 24.0218 3.15625 23.1875C2.84625 22.3912 2.6375 21.4837 2.575 20.1525C2.51625 18.82 2.5 18.3962 2.5 15C2.5 11.6038 2.5125 11.18 2.575 9.8475C2.6375 8.515 2.84625 7.61 3.15625 6.8125C3.46905 5.97772 3.961 5.22165 4.5975 4.5975C5.22209 3.96154 5.97804 3.46966 6.8125 3.15625C7.61 2.84625 8.515 2.6375 9.8475 2.575C11.18 2.51625 11.6038 2.5 15 2.5Z" fill="#BBBBBB"/>
</svg>
