<svg width="16" height="16" viewBox="0 0 16 16" fill="none" xmlns="http://www.w3.org/2000/svg">
<path d="M12.005 3.095C11.827 3.095 11.653 3.14778 11.505 3.24668C11.357 3.34557 11.2416 3.48613 11.1735 3.65058C11.1054 3.81504 11.0876 3.996 11.1223 4.17058C11.157 4.34516 11.2427 4.50553 11.3686 4.6314C11.4945 4.75726 11.6548 4.84298 11.8294 4.87771C12.004 4.91243 12.185 4.89461 12.3494 4.82649C12.5139 4.75837 12.6544 4.64302 12.7533 4.49501C12.8522 4.34701 12.905 4.173 12.905 3.995C12.905 3.7563 12.8102 3.52739 12.6414 3.3586C12.4726 3.18982 12.2437 3.095 12.005 3.095ZM15.455 4.91C15.4404 4.28772 15.3239 3.67205 15.11 3.0875C14.9193 2.58735 14.6225 2.13446 14.24 1.76C13.8686 1.37557 13.4147 1.08063 12.9125 0.8975C12.3295 0.677121 11.7131 0.557907 11.09 0.545C10.295 0.5 10.04 0.5 8 0.5C5.96 0.5 5.705 0.5 4.91 0.545C4.28686 0.557907 3.67051 0.677121 3.0875 0.8975C2.58626 1.08249 2.1327 1.37717 1.76 1.76C1.37557 2.13138 1.08063 2.58533 0.8975 3.0875C0.677121 3.67051 0.557907 4.28686 0.545 4.91C0.5 5.705 0.5 5.96 0.5 8C0.5 10.04 0.5 10.295 0.545 11.09C0.557907 11.7131 0.677121 12.3295 0.8975 12.9125C1.08063 13.4147 1.37557 13.8686 1.76 14.24C2.1327 14.6228 2.58626 14.9175 3.0875 15.1025C3.67051 15.3229 4.28686 15.4421 4.91 15.455C5.705 15.5 5.96 15.5 8 15.5C10.04 15.5 10.295 15.5 11.09 15.455C11.7131 15.4421 12.3295 15.3229 12.9125 15.1025C13.4147 14.9194 13.8686 14.6244 14.24 14.24C14.6242 13.8669 14.9213 13.4136 15.11 12.9125C15.3239 12.3279 15.4404 11.7123 15.455 11.09C15.455 10.295 15.5 10.04 15.5 8C15.5 5.96 15.5 5.705 15.455 4.91ZM14.105 11C14.0995 11.4761 14.0133 11.9478 13.85 12.395C13.7302 12.7214 13.5379 13.0163 13.2875 13.2575C13.0442 13.5054 12.7499 13.6973 12.425 13.82C11.9778 13.9833 11.5061 14.0695 11.03 14.075C10.28 14.1125 10.0025 14.12 8.03 14.12C6.0575 14.12 5.78 14.12 5.03 14.075C4.53567 14.0843 4.04345 14.0081 3.575 13.85C3.26434 13.7211 2.98352 13.5296 2.75 13.2875C2.50107 13.0466 2.31113 12.7514 2.195 12.425C2.01189 11.9714 1.91033 11.489 1.895 11C1.895 10.25 1.85 9.9725 1.85 8C1.85 6.0275 1.85 5.75 1.895 5C1.89836 4.51329 1.98721 4.03096 2.1575 3.575C2.28954 3.25843 2.4922 2.97624 2.75 2.75C2.97786 2.49213 3.25947 2.28732 3.575 2.15C4.03216 1.98503 4.514 1.89881 5 1.895C5.75 1.895 6.0275 1.85 8 1.85C9.9725 1.85 10.25 1.85 11 1.895C11.4761 1.90046 11.9478 1.98668 12.395 2.15C12.7358 2.27649 13.0417 2.48214 13.2875 2.75C13.5333 2.98038 13.7253 3.26205 13.85 3.575C14.0167 4.0317 14.103 4.51383 14.105 5C14.1425 5.75 14.15 6.0275 14.15 8C14.15 9.9725 14.1425 10.25 14.105 11ZM8 4.1525C7.23936 4.15398 6.49622 4.38089 5.86449 4.80456C5.23276 5.22823 4.74078 5.82965 4.45073 6.53281C4.16067 7.23598 4.08554 8.00935 4.23485 8.7552C4.38415 9.50104 4.75118 10.1859 5.28956 10.7232C5.82794 11.2606 6.51351 11.6263 7.25964 11.7741C8.00578 11.922 8.779 11.8453 9.4816 11.5539C10.1842 11.2625 10.7847 10.7693 11.2071 10.1368C11.6295 9.50422 11.855 8.76064 11.855 8C11.856 7.49383 11.7569 6.99246 11.5634 6.52472C11.37 6.05698 11.0859 5.63211 10.7277 5.27454C10.3694 4.91697 9.94396 4.63376 9.47585 4.4412C9.00773 4.24864 8.50617 4.15052 8 4.1525ZM8 10.4975C7.50604 10.4975 7.02318 10.351 6.61246 10.0766C6.20175 9.80217 5.88164 9.41211 5.69261 8.95575C5.50358 8.49939 5.45412 7.99723 5.55049 7.51276C5.64686 7.02829 5.88472 6.58328 6.234 6.234C6.58328 5.88472 7.02829 5.64686 7.51276 5.55049C7.99723 5.45412 8.49939 5.50358 8.95575 5.69261C9.41211 5.88164 9.80217 6.20175 10.0766 6.61246C10.351 7.02318 10.4975 7.50604 10.4975 8C10.4975 8.32798 10.4329 8.65274 10.3074 8.95575C10.1819 9.25876 9.99791 9.53409 9.766 9.766C9.53409 9.99791 9.25876 10.1819 8.95575 10.3074C8.65274 10.4329 8.32798 10.4975 8 10.4975Z" fill="white"/>
</svg>
