<svg width="15" height="14" viewBox="0 0 15 14" fill="none" xmlns="http://www.w3.org/2000/svg">
<path d="M3.41585 2.04167C3.41567 2.4174 3.26623 2.77766 3.00042 3.0432C2.73461 3.30874 2.3742 3.45782 1.99848 3.45763C1.62275 3.45744 1.26249 3.30801 0.996951 3.0422C0.731407 2.77639 0.582332 2.41598 0.58252 2.04026C0.582708 1.66453 0.732143 1.30427 0.997953 1.03873C1.26376 0.773186 1.62417 0.62411 1.99989 0.624298C2.37562 0.624486 2.73588 0.773922 3.00142 1.03973C3.26697 1.30554 3.41604 1.66595 3.41585 2.04167V2.04167ZM3.45835 4.50667H0.62502V13.375H3.45835V4.50667ZM7.93502 4.50667H5.11585V13.375H7.90669V8.72126C7.90669 6.12876 11.2854 5.88792 11.2854 8.72126V13.375H14.0834V7.75792C14.0834 3.38751 9.08252 3.55042 7.90669 5.69667L7.93502 4.50667V4.50667Z" fill="white"/>
</svg>
