<svg width="18" height="18" viewBox="0 0 18 18" fill="none" xmlns="http://www.w3.org/2000/svg">
<path d="M5.41536 4.04164C5.41518 4.41737 5.26574 4.77763 4.99993 5.04317C4.73412 5.30871 4.37371 5.45779 3.99799 5.4576C3.62227 5.45741 3.26201 5.30798 2.99646 5.04217C2.73092 4.77636 2.58184 4.41595 2.58203 4.04023C2.58222 3.6645 2.73165 3.30424 2.99746 3.0387C3.26327 2.77316 3.62368 2.62408 3.99941 2.62427C4.37513 2.62446 4.73539 2.77389 5.00093 3.0397C5.26648 3.30551 5.41555 3.66592 5.41536 4.04164ZM5.45786 6.50664H2.62453V15.375H5.45786V6.50664ZM9.93453 6.50664H7.11537V15.375H9.9062V10.7212C9.9062 8.12873 13.2849 7.88789 13.2849 10.7212V15.375H16.0829V9.75789C16.0829 5.38748 11.082 5.55039 9.9062 7.69664L9.93453 6.50664Z" fill="#666666"/>
</svg>
