<svg width="138" height="30" viewBox="0 0 138 30" fill="none" xmlns="http://www.w3.org/2000/svg">
<g style="mix-blend-mode:luminosity" opacity="0.5">
<path d="M13.1185 19.5833C18.2936 19.5833 22.4889 15.4793 22.4889 10.4167C22.4889 5.35406 18.2936 1.25 13.1185 1.25H0V19.5833H13.1185Z" fill="#F38744"/>
<path d="M0 1.25L22.4889 28.75H7.4963L0 19.5833V1.25Z" fill="#2E90FA"/>
<path d="M14.8629 19.4248C14.2977 19.5289 13.7146 19.5833 13.1185 19.5833H0V1.25L14.8629 19.4248Z" fill="#53B1FD"/>
<path d="M37.9116 21.425C36.5998 21.425 35.4728 21.1683 34.5306 20.655C33.6004 20.13 32.8849 19.395 32.384 18.45C31.8831 17.4933 31.6326 16.3675 31.6326 15.0725C31.6326 13.7775 31.8831 12.6575 32.384 11.7125C32.8849 10.7675 33.6004 10.0383 34.5306 9.52499C35.4728 8.99999 36.5998 8.73749 37.9116 8.73749C38.7584 8.73749 39.5574 8.86582 40.3088 9.12249C41.072 9.37915 41.6981 9.74665 42.1871 10.225L41.4358 12.01C40.8991 11.5667 40.3505 11.2458 39.79 11.0475C39.2295 10.8375 38.6272 10.7325 37.9832 10.7325C36.7071 10.7325 35.7352 11.1117 35.0673 11.87C34.3995 12.6167 34.0655 13.6842 34.0655 15.0725C34.0655 16.4608 34.3995 17.5342 35.0673 18.2925C35.7352 19.0508 36.7071 19.43 37.9832 19.43C38.6272 19.43 39.2295 19.3308 39.79 19.1325C40.3505 18.9225 40.8991 18.5958 41.4358 18.1525L42.1871 19.9375C41.6981 20.4042 41.072 20.7717 40.3088 21.04C39.5574 21.2967 38.7584 21.425 37.9116 21.425Z" fill="#101828"/>
<path d="M47.3311 21.425C46.4248 21.425 45.6376 21.2442 44.9698 20.8825C44.3019 20.5208 43.7832 20.0075 43.4135 19.3425C43.0438 18.6658 42.8589 17.8725 42.8589 16.9625C42.8589 16.0525 43.0438 15.265 43.4135 14.6C43.7832 13.935 44.3019 13.4217 44.9698 13.06C45.6376 12.6983 46.4248 12.5175 47.3311 12.5175C48.2375 12.5175 49.0246 12.6983 49.6925 13.06C50.3603 13.4217 50.8791 13.935 51.2488 14.6C51.6185 15.265 51.8033 16.0525 51.8033 16.9625C51.8033 17.8725 51.6185 18.6658 51.2488 19.3425C50.8791 20.0075 50.3603 20.5208 49.6925 20.8825C49.0246 21.2442 48.2375 21.425 47.3311 21.425ZM47.3311 19.7625C47.999 19.7625 48.5356 19.5292 48.9411 19.0625C49.3466 18.5842 49.5493 17.8842 49.5493 16.9625C49.5493 16.0292 49.3466 15.335 48.9411 14.88C48.5356 14.4133 47.999 14.18 47.3311 14.18C46.6633 14.18 46.1266 14.4133 45.7211 14.88C45.3156 15.335 45.1129 16.0292 45.1129 16.9625C45.1129 17.8842 45.3156 18.5842 45.7211 19.0625C46.1266 19.5292 46.6633 19.7625 47.3311 19.7625Z" fill="#101828"/>
<path d="M53.6848 21.25V12.6925H55.8672V14.005C56.1296 13.5383 56.4933 13.1767 56.9584 12.92C57.4235 12.6517 57.9602 12.5175 58.5684 12.5175C59.8803 12.5175 60.7389 13.0775 61.1444 14.1975C61.4187 13.6725 61.8123 13.2642 62.3251 12.9725C62.8379 12.6692 63.4223 12.5175 64.0782 12.5175C66.046 12.5175 67.0299 13.69 67.0299 16.035V21.25H64.7937V16.1225C64.7937 15.4692 64.6805 14.9908 64.4539 14.6875C64.2392 14.3842 63.8695 14.2325 63.3448 14.2325C62.7604 14.2325 62.3012 14.4367 61.9673 14.845C61.6334 15.2417 61.4664 15.7958 61.4664 16.5075V21.25H59.2303V16.1225C59.2303 15.4692 59.117 14.9908 58.8904 14.6875C58.6758 14.3842 58.312 14.2325 57.7992 14.2325C57.2148 14.2325 56.7557 14.4367 56.4218 14.845C56.0878 15.2417 55.9209 15.7958 55.9209 16.5075V21.25H53.6848Z" fill="#101828"/>
<path d="M69.3725 21.25V12.6925H71.5549V14.005C71.8173 13.5383 72.181 13.1767 72.6461 12.92C73.1112 12.6517 73.6479 12.5175 74.2561 12.5175C75.568 12.5175 76.4267 13.0775 76.8321 14.1975C77.1064 13.6725 77.5 13.2642 78.0128 12.9725C78.5256 12.6692 79.11 12.5175 79.7659 12.5175C81.7337 12.5175 82.7176 13.69 82.7176 16.035V21.25H80.4815V16.1225C80.4815 15.4692 80.3682 14.9908 80.1416 14.6875C79.9269 14.3842 79.5572 14.2325 79.0325 14.2325C78.4481 14.2325 77.9889 14.4367 77.655 14.845C77.3211 15.2417 77.1541 15.7958 77.1541 16.5075V21.25H74.918V16.1225C74.918 15.4692 74.8047 14.9908 74.5781 14.6875C74.3635 14.3842 73.9997 14.2325 73.4869 14.2325C72.9025 14.2325 72.4434 14.4367 72.1095 14.845C71.7755 15.2417 71.6086 15.7958 71.6086 16.5075V21.25H69.3725Z" fill="#101828"/>
<path d="M87.9045 21.425C87.2724 21.425 86.706 21.3083 86.2051 21.075C85.7161 20.83 85.3285 20.5033 85.0423 20.095C84.768 19.6867 84.6309 19.2258 84.6309 18.7125C84.6309 18.0825 84.7978 17.5867 85.1317 17.225C85.4657 16.8517 86.0083 16.5833 86.7596 16.42C87.511 16.2567 88.5187 16.175 89.7828 16.175H90.409V15.8075C90.409 15.2242 90.2778 14.8042 90.0154 14.5475C89.753 14.2908 89.3118 14.1625 88.6916 14.1625C88.2027 14.1625 87.7018 14.2383 87.189 14.39C86.6761 14.53 86.1574 14.7517 85.6326 15.055L84.9886 13.5675C85.2987 13.3575 85.6624 13.1767 86.0798 13.025C86.5092 12.8617 86.9564 12.7392 87.4215 12.6575C87.8986 12.5642 88.3458 12.5175 88.7632 12.5175C90.0393 12.5175 90.9874 12.8092 91.6075 13.3925C92.2277 13.9642 92.5377 14.8567 92.5377 16.07V21.25H90.4447V19.885C90.242 20.3633 89.92 20.7425 89.4787 21.0225C89.0375 21.2908 88.5127 21.425 87.9045 21.425ZM88.3696 19.92C88.954 19.92 89.437 19.7217 89.8186 19.325C90.2122 18.9283 90.409 18.4267 90.409 17.82V17.435H89.8007C88.6797 17.435 87.8986 17.5225 87.4573 17.6975C87.028 17.8608 86.8133 18.1642 86.8133 18.6075C86.8133 18.9925 86.9504 19.3075 87.2247 19.5525C87.499 19.7975 87.8807 19.92 88.3696 19.92Z" fill="#101828"/>
<path d="M94.8074 21.25V12.6925H96.9898V14.0225C97.288 13.5325 97.6875 13.1592 98.1884 12.9025C98.7012 12.6458 99.2737 12.5175 99.9057 12.5175C101.969 12.5175 103 13.69 103 16.035V21.25H100.764V16.14C100.764 15.475 100.633 14.9908 100.371 14.6875C100.12 14.3842 99.7268 14.2325 99.1902 14.2325C98.5342 14.2325 98.0095 14.4367 97.6159 14.845C97.2343 15.2417 97.0435 15.7725 97.0435 16.4375V21.25H94.8074Z" fill="#101828"/>
<path d="M108.635 21.425C107.872 21.425 107.198 21.2442 106.613 20.8825C106.041 20.5208 105.594 20.0075 105.272 19.3425C104.95 18.6658 104.789 17.8725 104.789 16.9625C104.789 16.0408 104.95 15.2533 105.272 14.6C105.594 13.935 106.041 13.4217 106.613 13.06C107.198 12.6983 107.872 12.5175 108.635 12.5175C109.255 12.5175 109.815 12.6517 110.316 12.92C110.817 13.1883 111.193 13.5442 111.443 13.9875V8.91249H113.679V21.25H111.497V19.8325C111.259 20.3225 110.883 20.7133 110.37 21.005C109.857 21.285 109.279 21.425 108.635 21.425ZM109.261 19.7625C109.929 19.7625 110.465 19.5292 110.871 19.0625C111.276 18.5842 111.479 17.8842 111.479 16.9625C111.479 16.0292 111.276 15.335 110.871 14.88C110.465 14.4133 109.929 14.18 109.261 14.18C108.593 14.18 108.056 14.4133 107.651 14.88C107.245 15.335 107.043 16.0292 107.043 16.9625C107.043 17.8842 107.245 18.5842 107.651 19.0625C108.056 19.5292 108.593 19.7625 109.261 19.7625Z" fill="#101828"/>
<path d="M119.379 20.55V16.9975H115.837V15.4575H119.379V12.01H121.025V15.4575H124.567V16.9975H121.025V20.55H119.379Z" fill="#101828"/>
<path d="M126.939 21.25V8.91249H132.413C133.796 8.91249 134.864 9.23915 135.615 9.89249C136.366 10.5342 136.742 11.4383 136.742 12.605C136.742 13.5267 136.498 14.2908 136.009 14.8975C135.52 15.4925 134.816 15.895 133.898 16.105C134.506 16.2917 135.007 16.7408 135.4 17.4525L137.511 21.25H134.989L132.807 17.3125C132.592 16.9275 132.336 16.665 132.037 16.525C131.751 16.385 131.381 16.315 130.928 16.315H129.229V21.25H126.939ZM129.229 14.6525H132.019C133.689 14.6525 134.524 13.9875 134.524 12.6575C134.524 11.3392 133.689 10.68 132.019 10.68H129.229V14.6525Z" fill="#101828"/>
</g>
</svg>
