<svg width="118" height="34" viewBox="0 0 118 34" fill="none" xmlns="http://www.w3.org/2000/svg">
<g style="mix-blend-mode:luminosity" opacity="0.5">
<path d="M29.7771 17.177C29.7771 24.95 23.4521 31.2603 15.6386 31.2603C7.82504 31.2603 1.5 24.95 1.5 17.177C1.5 9.40398 7.82504 3.09366 15.6386 3.09366C23.4521 3.09366 29.7771 9.40398 29.7771 17.177Z" stroke="#6927DA" stroke-width="3"/>
<path d="M21.1104 22.6296C18.2134 25.5163 14.9464 27.3846 12.0656 28.1227C9.14696 28.8706 6.91946 28.4094 5.64298 27.1374C4.3665 25.8654 3.90362 23.6458 4.65412 20.7375C5.3949 17.8669 7.26979 14.6113 10.1668 11.7246C13.0637 8.83785 16.3308 6.96958 19.2116 6.23142C22.1302 5.48357 24.3577 5.94481 25.6342 7.21679C26.9106 8.48876 27.3735 10.7084 26.623 13.6167C25.8822 16.4873 24.0074 19.7428 21.1104 22.6296Z" stroke="#6927DA" stroke-width="3"/>
<path d="M21.1102 11.7246C24.0072 14.6113 25.8821 17.8668 26.6229 20.7375C27.3734 23.6457 26.9105 25.8654 25.634 27.1374C24.3575 28.4093 22.13 28.8706 19.2115 28.1227C16.3306 27.3846 13.0636 25.5163 10.1666 22.6295C7.26965 19.7428 5.39476 16.4873 4.65398 13.6167C3.90349 10.7084 4.36636 8.48873 5.64284 7.21676C6.91932 5.94479 9.14682 5.48354 12.0654 6.23139C14.9462 6.96955 18.2133 8.83782 21.1102 11.7246Z" stroke="#6927DA" stroke-width="3"/>
<path d="M44.6765 24.2533C48.0246 24.2533 50.2851 22.5108 50.2851 19.7271C50.2851 13.8408 42.4373 16.3483 42.4373 13.2458C42.4373 12.3746 43.2264 11.7796 44.4846 11.7796C45.9134 11.7796 46.809 12.5446 46.9157 13.7133H49.9652C49.8799 10.8871 47.7047 9.03832 44.4846 9.03832C41.4564 9.03832 39.3238 10.7808 39.3238 13.2458C39.3238 19.0896 47.0649 16.8583 47.0649 19.7696C47.0649 20.8958 46.1053 21.4908 44.6765 21.4908C43.0984 21.4908 42.0961 20.5346 41.9682 19.0258H38.8973C39.0253 22.1921 41.2858 24.2533 44.6765 24.2533Z" fill="#101828"/>
<path d="M51.0103 28.4183H53.9745V23.1271C54.5503 23.8496 55.5952 24.2533 56.8108 24.2533C59.9029 24.2533 61.9928 22.0646 61.9928 18.7283C61.9928 15.3921 60.0735 13.2033 57.0667 13.2033C55.6805 13.2033 54.6143 13.7133 53.9745 14.5421V13.3733H51.0103V28.4183ZM56.4482 21.7033C54.8488 21.7033 53.8039 20.5133 53.8039 18.7283C53.8039 16.9221 54.8488 15.7321 56.4482 15.7321C58.005 15.7321 59.0712 16.9221 59.0712 18.7283C59.0712 20.5133 58.005 21.7033 56.4482 21.7033Z" fill="#101828"/>
<path d="M62.71 24.0833H65.6743V18.2183C65.6743 16.8371 66.5912 15.8383 67.8921 15.8383C69.129 15.8383 69.982 16.7733 69.982 18.0696V24.0833H72.9462V17.4108C72.9462 14.9458 71.3681 13.2033 68.9584 13.2033C67.4656 13.2033 66.2927 13.8196 65.6743 14.8608V8.71957H62.71V24.0833Z" fill="#101828"/>
<path d="M81.2384 20.4496C81.0038 21.3633 80.2148 21.8308 79.0206 21.8308C77.5278 21.8308 76.5682 20.8958 76.3549 19.3871H84.0747C84.096 19.1533 84.1173 18.8346 84.1173 18.4308C84.1173 15.9871 82.6032 13.2033 78.8073 13.2033C75.1607 13.2033 73.4973 15.9871 73.4973 18.7071C73.4973 21.4058 75.3739 24.2533 79.0206 24.2533C81.6649 24.2533 83.7121 22.7658 84.1386 20.4496H81.2384ZM78.8073 15.3708C80.2361 15.3708 81.0678 16.3271 81.1531 17.5171H76.3975C76.6535 16.0296 77.4638 15.3708 78.8073 15.3708Z" fill="#101828"/>
<path d="M91.8914 15.8383V13.3733H90.362C89.0611 13.3733 88.2508 13.8196 87.675 15.1583V13.3733H84.6894V24.0833H87.675V18.8771C87.675 17.0496 88.3361 15.8383 89.8075 15.8383H91.8914Z" fill="#101828"/>
<path d="M102.128 13.3733H99.142V19.2383C99.142 20.5983 98.225 21.6183 96.9241 21.6183C95.7086 21.6183 94.8556 20.6833 94.8556 19.3871V13.3733H91.8914V20.0458C91.8914 22.4896 93.4694 24.2533 95.8792 24.2533C97.3507 24.2533 98.5449 23.6158 99.142 22.5958V24.0833H102.128V13.3733Z" fill="#101828"/>
<path d="M103.407 24.0833H106.371V8.71957H103.407V24.0833Z" fill="#101828"/>
<path d="M114.834 20.4496C114.599 21.3633 113.81 21.8308 112.616 21.8308C111.123 21.8308 110.164 20.8958 109.951 19.3871H117.67C117.692 19.1533 117.713 18.8346 117.713 18.4308C117.713 15.9871 116.199 13.2033 112.403 13.2033C108.756 13.2033 107.093 15.9871 107.093 18.7071C107.093 21.4058 108.97 24.2533 112.616 24.2533C115.261 24.2533 117.308 22.7658 117.734 20.4496H114.834ZM112.403 15.3708C113.832 15.3708 114.663 16.3271 114.749 17.5171H109.993C110.249 16.0296 111.059 15.3708 112.403 15.3708Z" fill="#101828"/>
</g>
</svg>
