<svg width="115" height="34" viewBox="0 0 115 34" fill="none" xmlns="http://www.w3.org/2000/svg">
<g style="mix-blend-mode:luminosity" opacity="0.5">
<path fill-rule="evenodd" clip-rule="evenodd" d="M13.611 2.44227C13.2632 2.36869 12.9045 2.36869 12.5567 2.44227C12.1547 2.52731 11.7954 2.73433 11.5097 2.89891L11.4318 2.94366L1.75016 8.47632C1.72339 8.49162 1.69581 8.50725 1.66755 8.52326C1.36515 8.69459 0.984928 8.91001 0.69294 9.23592C0.440494 9.5177 0.249451 9.85168 0.132584 10.2155C-0.00258912 10.6363 -0.00100763 11.0828 0.000250079 11.438C0.000367648 11.4711 0.000482326 11.5035 0.000482326 11.535V22.4589C0.000482326 22.4904 0.000367648 22.5228 0.000250079 22.556C-0.00100763 22.9111 -0.00258912 23.3576 0.132584 23.7784C0.249452 24.1423 0.440496 24.4762 0.69294 24.758C0.984928 25.0839 1.36515 25.2994 1.66755 25.4707C1.69581 25.4867 1.72339 25.5023 1.75016 25.5176L11.4318 31.0503L11.5097 31.095C11.7954 31.2596 12.1547 31.4666 12.5567 31.5517C12.9045 31.6252 13.2632 31.6252 13.611 31.5517C14.013 31.4666 14.3723 31.2596 14.658 31.095L14.7358 31.0503L24.4175 25.5176C24.4293 25.5109 24.4413 25.504 24.4535 25.4971C24.4688 25.4884 24.4843 25.4796 24.5001 25.4707C24.8025 25.2994 25.1827 25.0839 25.4747 24.758C25.7272 24.4762 25.9182 24.1423 26.0351 23.7784C26.1703 23.3576 26.1687 22.9111 26.1674 22.556C26.1673 22.5228 26.1672 22.4904 26.1672 22.4589V11.535C26.1672 11.5035 26.1673 11.4712 26.1674 11.438C26.1687 11.0828 26.1703 10.6363 26.0351 10.2155C25.9182 9.85168 25.7272 9.5177 25.4747 9.23592C25.1827 8.91 24.8025 8.69458 24.5001 8.52325L24.499 8.52265C24.4712 8.50685 24.4439 8.49142 24.4175 8.47632L14.7358 2.94366L14.658 2.89891C14.3723 2.73433 14.013 2.52731 13.611 2.44227ZM12.7026 5.29651C12.9009 5.18321 13.0021 5.12596 13.0776 5.0885L13.0838 5.08542L13.0901 5.0885C13.1656 5.12596 13.2668 5.18321 13.4651 5.29651L22.1648 10.268L13.0838 15.4574L4.00286 10.268L12.7026 5.29651ZM2.61715 12.5552L11.7755 17.7888L11.7755 28.1676L3.02092 23.1648C2.81165 23.0452 2.70481 22.9835 2.62985 22.9343L2.62351 22.9302L2.62304 22.9225C2.6177 22.8312 2.61715 22.7052 2.61715 22.4589V12.5552Z" fill="#101828"/>
<path d="M38.0747 21.4945H42.2395V24.019H34.8953V10.5933H38.0747V21.4945Z" fill="#101828"/>
<path d="M45.169 12.238C44.6112 12.238 44.1526 12.0723 43.7931 11.7408C43.4461 11.3965 43.2725 10.9758 43.2725 10.4785C43.2725 9.96855 43.4461 9.5478 43.7931 9.2163C44.1526 8.87205 44.6112 8.69992 45.169 8.69992C45.7144 8.69992 46.1606 8.87205 46.5077 9.2163C46.8672 9.5478 47.0469 9.96855 47.0469 10.4785C47.0469 10.9758 46.8672 11.3965 46.5077 11.7408C46.1606 12.0723 45.7144 12.238 45.169 12.238ZM46.7494 13.3473V24.019H43.57V13.3473H46.7494Z" fill="#101828"/>
<path d="M52.8092 13.1943C53.5405 13.1943 54.1789 13.3473 54.7243 13.6533C55.2821 13.9593 55.7097 14.3609 56.0072 14.8582V13.3473H59.1865V23.9999C59.1865 24.9817 58.9944 25.8678 58.6102 26.6583C58.2383 27.4615 57.6619 28.099 56.881 28.5708C56.1125 29.0425 55.1519 29.2784 53.9992 29.2784C52.4621 29.2784 51.2164 28.9023 50.262 28.15C49.3076 27.4105 48.7622 26.4033 48.6258 25.1283H51.768C51.8672 25.5363 52.1027 25.855 52.4745 26.0845C52.8464 26.3268 53.305 26.4479 53.8504 26.4479C54.5074 26.4479 55.028 26.2503 55.4122 25.855C55.8089 25.4725 56.0072 24.8542 56.0072 23.9999V22.489C55.6973 22.9863 55.2697 23.3943 54.7243 23.713C54.1789 24.019 53.5405 24.172 52.8092 24.172C51.9539 24.172 51.1792 23.9489 50.4851 23.5027C49.791 23.0437 49.2394 22.3998 48.8303 21.571C48.4337 20.7295 48.2354 19.7605 48.2354 18.664C48.2354 17.5675 48.4337 16.6049 48.8303 15.7762C49.2394 14.9474 49.791 14.3099 50.4851 13.8637C51.1792 13.4174 51.9539 13.1943 52.8092 13.1943ZM56.0072 18.6832C56.0072 17.8672 55.7841 17.2233 55.3378 16.7515C54.904 16.2798 54.371 16.0439 53.7388 16.0439C53.1067 16.0439 52.5675 16.2798 52.1213 16.7515C51.6874 17.2105 51.4705 17.848 51.4705 18.664C51.4705 19.48 51.6874 20.1303 52.1213 20.6148C52.5675 21.0865 53.1067 21.3224 53.7388 21.3224C54.371 21.3224 54.904 21.0865 55.3378 20.6148C55.7841 20.143 56.0072 19.4992 56.0072 18.6832Z" fill="#101828"/>
<path d="M67.6781 13.2325C68.868 13.2325 69.8225 13.6405 70.5414 14.4565C71.2603 15.2598 71.6198 16.369 71.6198 17.7843V24.019H68.459V18.2242C68.459 17.5102 68.2793 16.9555 67.9198 16.5603C67.5603 16.165 67.0769 15.9674 66.4696 15.9674C65.8622 15.9674 65.3788 16.165 65.0193 16.5603C64.6599 16.9555 64.4801 17.5102 64.4801 18.2242V24.019H61.3007V9.86655H64.4801V14.7817C64.8024 14.3099 65.2424 13.9338 65.8002 13.6533C66.358 13.3728 66.984 13.2325 67.6781 13.2325Z" fill="#101828"/>
<path d="M79.4255 21.2459V24.019H77.808C76.6552 24.019 75.7566 23.7322 75.112 23.1584C74.4675 22.5719 74.1452 21.622 74.1452 20.3088V16.063H72.8809V13.3473H74.1452V10.7463H77.3246V13.3473H79.407V16.063H77.3246V20.347C77.3246 20.6658 77.3989 20.8953 77.5477 21.0355C77.6964 21.1758 77.9443 21.2459 78.2914 21.2459H79.4255Z" fill="#101828"/>
<path d="M84.19 14.8582C84.4874 14.3609 84.9151 13.9593 85.4729 13.6533C86.0306 13.3473 86.669 13.1943 87.3879 13.1943C88.2432 13.1943 89.0179 13.4174 89.712 13.8637C90.4062 14.3099 90.9515 14.9474 91.3482 15.7762C91.7572 16.6049 91.9618 17.5675 91.9618 18.664C91.9618 19.7605 91.7572 20.7295 91.3482 21.571C90.9515 22.3998 90.4062 23.0437 89.712 23.5027C89.0179 23.9489 88.2432 24.172 87.3879 24.172C86.6566 24.172 86.0182 24.0254 85.4729 23.7322C84.9275 23.4262 84.4998 23.0245 84.19 22.5273V24.019H81.0106V9.86655H84.19V14.8582ZM88.7266 18.664C88.7266 17.848 88.5035 17.2105 88.0573 16.7515C87.6234 16.2798 87.0842 16.0439 86.4397 16.0439C85.8075 16.0439 85.2683 16.2798 84.8221 16.7515C84.3883 17.2233 84.1714 17.8672 84.1714 18.6832C84.1714 19.4992 84.3883 20.143 84.8221 20.6148C85.2683 21.0865 85.8075 21.3224 86.4397 21.3224C87.0718 21.3224 87.611 21.0865 88.0573 20.6148C88.5035 20.1303 88.7266 19.48 88.7266 18.664Z" fill="#101828"/>
<path d="M98.1664 24.172C97.15 24.172 96.2327 23.9489 95.4146 23.5027C94.609 23.0564 93.9706 22.4189 93.4996 21.5902C93.041 20.7614 92.8116 19.7924 92.8116 18.6832C92.8116 17.5867 93.0472 16.624 93.5182 15.7953C93.9892 14.9538 94.6337 14.3099 95.4518 13.8637C96.2699 13.4174 97.1872 13.1943 98.2036 13.1943C99.22 13.1943 100.137 13.4174 100.955 13.8637C101.773 14.3099 102.418 14.9538 102.889 15.7953C103.36 16.624 103.595 17.5867 103.595 18.6832C103.595 19.7797 103.354 20.7487 102.87 21.5902C102.399 22.4189 101.749 23.0564 100.918 23.5027C100.1 23.9489 99.1828 24.172 98.1664 24.172ZM98.1664 21.3415C98.7737 21.3415 99.2881 21.112 99.7096 20.653C100.143 20.194 100.36 19.5374 100.36 18.6832C100.36 17.8289 100.15 17.1723 99.7282 16.7133C99.3191 16.2543 98.8109 16.0248 98.2036 16.0248C97.5838 16.0248 97.0694 16.2543 96.6604 16.7133C96.2513 17.1595 96.0468 17.8162 96.0468 18.6832C96.0468 19.5374 96.2451 20.194 96.6418 20.653C97.0508 21.112 97.559 21.3415 98.1664 21.3415Z" fill="#101828"/>
<path d="M111.232 24.019L109.242 21.0547L107.569 24.019H104.129L107.551 18.5684L104.036 13.3473H107.606L109.596 16.2925L111.269 13.3473H114.709L111.232 18.7214L114.802 24.019H111.232Z" fill="#101828"/>
</g>
</svg>
