<svg width="117" height="34" viewBox="0 0 117 34" fill="none" xmlns="http://www.w3.org/2000/svg">
<g style="mix-blend-mode:luminosity" opacity="0.5">
<path d="M11.1429 23.6786C17.297 23.6786 22.2858 18.6951 22.2858 12.5476C22.2858 11.8509 22.2217 11.1691 22.0991 10.5079C21.4372 10.3854 20.7547 10.3214 20.0572 10.3214C13.9032 10.3214 8.91437 15.3049 8.91437 21.4524C8.91437 22.1491 8.97845 22.8308 9.10104 23.4921C9.76299 23.6145 10.4455 23.6786 11.1429 23.6786Z" fill="#175CD3"/>
<path fill-rule="evenodd" clip-rule="evenodd" d="M9.10096 23.4921C3.92211 22.534 0 17.9984 0 12.5476C0 6.40015 4.98883 1.41666 11.1429 1.41666C16.5994 1.41666 21.14 5.33457 22.099 10.5079C21.4371 10.3854 20.7546 10.3214 20.0571 10.3214C13.9031 10.3214 8.91429 15.3049 8.91429 21.4524C8.91429 22.1491 8.97837 22.8308 9.10096 23.4921Z" fill="#1570EF"/>
<path fill-rule="evenodd" clip-rule="evenodd" d="M11.1429 23.6785C17.2969 23.6785 22.2857 18.695 22.2857 12.5475C22.2857 11.8508 22.2217 11.1691 22.0991 10.5078C27.2779 11.4659 31.2 16.0015 31.2 21.4523C31.2 27.5997 26.2112 32.5832 20.0572 32.5832C14.6006 32.5832 10.0601 28.6653 9.10098 23.492C9.76294 23.6145 10.4454 23.6785 11.1429 23.6785Z" fill="#2E90FA"/>
<path d="M47.8991 24.2533C51.7069 24.2533 54.4511 22.1071 54.7276 18.9196H51.5367C51.2815 20.4496 49.8136 21.4908 47.8991 21.4908C45.4953 21.4908 43.6446 19.8333 43.6446 16.6458C43.6446 13.4583 45.4953 11.7796 47.8991 11.7796C49.7711 11.7796 51.2389 12.8208 51.4516 14.3721H54.7915C54.3873 11.1633 51.6431 9.03832 47.8991 9.03832C43.9211 9.03832 40.4324 11.6308 40.4324 16.6458C40.4324 21.6608 43.8573 24.2533 47.8991 24.2533Z" fill="#101828"/>
<path d="M60.6494 13.2033C57.7138 13.2033 55.9694 14.9246 55.8418 17.0708H58.4796C58.5222 16.1783 59.1816 15.3708 60.4793 15.3708C61.6918 15.3708 62.3938 15.9871 62.3938 16.8796C62.3938 17.3258 62.1173 17.6658 61.5854 17.6658H59.7773C57.4373 17.6658 55.8631 18.9408 55.8631 21.0446C55.8631 22.8721 57.2884 24.2533 59.3731 24.2533C60.8409 24.2533 62.0322 23.5946 62.3938 22.5958V24.0833H65.3294V17.1983C65.3294 14.7758 63.3511 13.2033 60.6494 13.2033ZM60.1176 22.1071C59.288 22.1071 58.6924 21.6183 58.6924 20.9171C58.6924 20.0883 59.3305 19.5358 60.224 19.5358H62.3938V19.6846C62.3938 21.0446 61.5642 22.1071 60.1176 22.1071Z" fill="#101828"/>
<path d="M67.3166 28.4183H70.2735V23.1271C70.8479 23.8496 71.8902 24.2533 73.1028 24.2533C76.1873 24.2533 78.2721 22.0646 78.2721 18.7283C78.2721 15.3921 76.3575 13.2033 73.3581 13.2033C71.9753 13.2033 70.9117 13.7133 70.2735 14.5421V13.3733H67.3166V28.4183ZM72.7412 21.7033C71.1457 21.7033 70.1033 20.5133 70.1033 18.7283C70.1033 16.9221 71.1457 15.7321 72.7412 15.7321C74.2941 15.7321 75.3577 16.9221 75.3577 18.7283C75.3577 20.5133 74.2941 21.7033 72.7412 21.7033Z" fill="#101828"/>
<path d="M83.4786 24.2533C85.9887 24.2533 87.648 22.9146 87.648 20.8746C87.648 16.0296 81.7767 18.5158 81.7767 16.3271C81.7767 15.6471 82.3511 15.2858 83.1807 15.2858C83.9891 15.2858 84.8187 15.7746 84.9464 16.6883H87.5204C87.414 14.5846 85.6697 13.2033 83.0957 13.2033C80.9046 13.2033 79.2666 14.5421 79.2666 16.4333C79.2666 20.9383 85.0315 18.7921 85.0315 20.9808C85.0315 21.5758 84.3933 22.0221 83.4786 22.0221C82.3724 22.0221 81.6278 21.4271 81.5215 20.4708H78.9687C79.0751 22.7871 80.862 24.2533 83.4786 24.2533Z" fill="#101828"/>
<path d="M99.3269 13.3733H96.3487V19.2383C96.3487 20.5983 95.434 21.6183 94.1364 21.6183C92.9238 21.6183 92.0729 20.6833 92.0729 19.3871V13.3733H89.116V20.0458C89.116 22.4896 90.6902 24.2533 93.094 24.2533C94.5618 24.2533 95.7531 23.6158 96.3487 22.5958V24.0833H99.3269V13.3733Z" fill="#101828"/>
<path d="M101.454 24.0833H104.411V8.71957H101.454V24.0833Z" fill="#101828"/>
<path d="M113.704 20.4496C113.47 21.3633 112.683 21.8308 111.492 21.8308C110.002 21.8308 109.045 20.8958 108.832 19.3871H116.533C116.554 19.1533 116.576 18.8346 116.576 18.4308C116.576 15.9871 115.065 13.2033 111.279 13.2033C107.641 13.2033 105.982 15.9871 105.982 18.7071C105.982 21.4058 107.854 24.2533 111.492 24.2533C114.129 24.2533 116.172 22.7658 116.597 20.4496H113.704ZM111.279 15.3708C112.704 15.3708 113.534 16.3271 113.619 17.5171H108.875C109.13 16.0296 109.939 15.3708 111.279 15.3708Z" fill="#101828"/>
</g>
</svg>
