<svg width="119" height="32" viewBox="0 0 119 32" fill="none" xmlns="http://www.w3.org/2000/svg">
<g style="mix-blend-mode:luminosity" opacity="0.5">
<path d="M10.049 12.9665C13.9664 11.1297 17.0323 8.01266 18.7923 4.11639C17.6568 2.94751 16.1806 2.1126 14.591 1.61165L13.7394 1.33334C13.6826 1.44467 13.6258 1.61166 13.6258 1.72298C12.2632 5.50792 9.48129 8.56927 5.7342 10.2948C3.12258 11.5193 1.19226 13.7457 0.283871 16.4175L0 17.2524C0.113548 17.308 0.283874 17.3637 0.397422 17.3637C1.47613 17.7533 2.55484 18.2543 3.57678 18.8665C4.99613 16.3618 7.26709 14.2467 10.049 12.9665Z" fill="#087443"/>
<path d="M26.5135 13.1891C24.4129 16.3062 21.5174 18.8109 17.9406 20.4807C15.0451 21.8166 12.831 24.3214 11.809 27.327L11.5251 28.2733C12.6039 29.2195 13.9097 29.9431 15.329 30.3884L16.1806 30.6667C16.2374 30.5554 16.2942 30.3884 16.2942 30.2771C17.6568 26.4921 20.4387 23.4308 24.1858 21.7053C26.7974 20.4807 28.7845 18.2543 29.6361 15.5826L29.92 14.7477C28.7277 14.4137 27.5922 13.8571 26.5135 13.1891Z" fill="#16B364"/>
<path d="M9.25418 25.3788C10.6735 22.0391 13.2851 19.3117 16.6348 17.7532C19.7006 16.306 22.2555 14.0796 24.0155 11.3522C22.7097 10.1277 21.631 8.73614 20.8361 7.06631C18.7355 10.8513 15.4426 13.9126 11.4116 15.8051C9.08386 16.8626 7.21031 18.6995 6.07483 20.9259C7.32386 22.0948 8.3458 23.542 9.14064 25.1561C9.14064 25.1561 9.19741 25.2675 9.25418 25.3788Z" fill="#099250"/>
<path d="M36.686 22.6667H46.2536V20.0667H39.7664V8.66667H36.686V22.6667Z" fill="#101828"/>
<path d="M56.2495 12.5867H53.3935V18.1067C53.3935 19.3867 52.5163 20.3467 51.2719 20.3467C50.1091 20.3467 49.2931 19.4667 49.2931 18.2467V12.5867H46.4575V18.8667C46.4575 21.1667 47.9671 22.8267 50.2723 22.8267C51.6799 22.8267 52.8223 22.2267 53.3935 21.2667V22.6667H56.2495V12.5867Z" fill="#101828"/>
<path d="M57.3104 22.6667H60.1664V16.9467C60.1664 15.6467 60.9212 14.7867 62.1044 14.7867C63.206 14.7867 63.8996 15.6467 63.8996 16.9467V22.6667H66.7556V16.9467C66.7556 15.6467 67.5104 14.7867 68.6936 14.7867C69.7952 14.7867 70.5092 15.6467 70.5092 16.9467V22.6667H73.3448V16.0667C73.3448 14.0467 71.8964 12.4267 69.6524 12.4267C68 12.4267 66.7148 13.2867 66.2252 14.2667C65.7356 13.0667 64.6952 12.4267 63.0836 12.4267C61.6964 12.4267 60.7172 13.0867 60.1664 14.0067V12.5867H57.3104V22.6667Z" fill="#101828"/>
<path d="M74.3178 8.20667V11.1467H77.337V8.20667H74.3178ZM74.3994 22.6667H77.2554V12.5867H74.3994V22.6667Z" fill="#101828"/>
<path d="M78.32 22.6667H81.176V17.1467C81.176 15.8467 82.0532 14.9067 83.2976 14.9067C84.4808 14.9067 85.2764 15.7867 85.2764 17.0067V22.6667H88.1324V16.3867C88.1324 14.0667 86.6228 12.4267 84.2972 12.4267C82.8896 12.4267 81.7472 13.0067 81.176 13.9867V12.5867H78.32V22.6667Z" fill="#101828"/>
<path d="M94.0894 22.8267C97.2514 22.8267 99.5158 20.6267 99.5158 17.6267C99.5158 14.6267 97.2514 12.4267 94.0894 12.4267C90.9274 12.4267 88.663 14.6267 88.663 17.6267C88.663 20.6267 90.9274 22.8267 94.0894 22.8267ZM94.0894 20.4267C92.5594 20.4267 91.519 19.2867 91.519 17.6267C91.519 15.9467 92.5594 14.8067 94.0894 14.8067C95.6194 14.8067 96.6598 15.9467 96.6598 17.6267C96.6598 19.2867 95.6194 20.4267 94.0894 20.4267Z" fill="#101828"/>
<path d="M109.859 12.5867H107.003V18.1067C107.003 19.3867 106.126 20.3467 104.882 20.3467C103.719 20.3467 102.903 19.4667 102.903 18.2467V12.5867H100.067V18.8667C100.067 21.1667 101.577 22.8267 103.882 22.8267C105.29 22.8267 106.432 22.2267 107.003 21.2667V22.6667H109.859V12.5867Z" fill="#101828"/>
<path d="M114.674 22.8267C117.081 22.8267 118.672 21.5667 118.672 19.6467C118.672 15.0867 113.042 17.4267 113.042 15.3667C113.042 14.7267 113.593 14.3867 114.388 14.3867C115.163 14.3867 115.959 14.8467 116.081 15.7067H118.55C118.448 13.7267 116.775 12.4267 114.307 12.4267C112.205 12.4267 110.635 13.6867 110.635 15.4667C110.635 19.7067 116.163 17.6867 116.163 19.7467C116.163 20.3067 115.551 20.7267 114.674 20.7267C113.613 20.7267 112.899 20.1667 112.797 19.2667H110.349C110.451 21.4467 112.165 22.8267 114.674 22.8267Z" fill="#101828"/>
</g>
</svg>
