<svg width="134" height="34" viewBox="0 0 134 34" fill="none" xmlns="http://www.w3.org/2000/svg">
<g style="mix-blend-mode:luminosity" opacity="0.5">
<path d="M23.4021 17C20.947 19.813 17.3792 21.5833 13.4082 21.5833C9.43711 21.5833 5.86927 19.813 3.41415 17C5.86927 14.187 9.43711 12.4167 13.4082 12.4167C17.3792 12.4167 20.947 14.187 23.4021 17Z" fill="white"/>
<path fill-rule="evenodd" clip-rule="evenodd" d="M0 26.1667C0 18.5727 6.00302 12.4167 13.4081 12.4167C9.43708 12.4167 5.86927 14.187 3.41415 17C5.86927 19.813 9.43711 21.5833 13.4081 21.5833C17.3792 21.5833 20.947 19.813 23.4021 17C25.5252 19.4326 26.8162 22.645 26.8162 26.1667V31.3611C26.8162 32.0361 26.2826 32.5833 25.6244 32.5833H1.19183C0.533602 32.5833 0 32.0361 0 31.3611V26.1667ZM23.4021 17C23.4021 17 23.4021 17 23.4021 17Z" fill="#7CD4FD"/>
<path fill-rule="evenodd" clip-rule="evenodd" d="M8.3789 20.5833C6.4644 19.7884 4.76968 18.5531 3.41416 17C5.86927 14.187 9.43711 12.4167 13.4082 12.4167C17.3792 12.4167 20.947 14.187 23.4021 17C23.4021 17 23.4021 17 23.4021 17C25.5253 14.5673 26.8162 11.3549 26.8162 7.83332V2.63888C26.8162 1.96387 26.2826 1.41666 25.6244 1.41666L1.19184 1.41666C0.533607 1.41666 4.31506e-06 1.96386 4.25752e-06 2.63888L3.8147e-06 7.83332C2.92405e-06 13.6034 3.46573 18.5433 8.3789 20.5833Z" fill="#0BA5EC"/>
<path d="M47.7593 10.2397V24.0833H45.0517V18.1928H39.269V24.0833H36.5614V10.2397H39.269V15.9318H45.0517V10.2397H47.7593Z" fill="#101828"/>
<path d="M55.182 24.2618C54.1506 24.2618 53.2222 24.0305 52.3971 23.5677C51.5719 23.0917 50.9208 22.424 50.4437 21.5645C49.9795 20.7051 49.7475 19.7134 49.7475 18.5895C49.7475 17.4656 49.986 16.474 50.463 15.6145C50.953 14.7551 51.617 14.094 52.4551 13.6312C53.2932 13.1552 54.2279 12.9172 55.2594 12.9172C56.2909 12.9172 57.2257 13.1552 58.0637 13.6312C58.9018 14.094 59.5594 14.7551 60.0364 15.6145C60.5264 16.474 60.7714 17.4656 60.7714 18.5895C60.7714 19.7134 60.5199 20.7051 60.0171 21.5645C59.5271 22.424 58.8567 23.0917 58.0057 23.5677C57.1676 24.0305 56.2264 24.2618 55.182 24.2618ZM55.182 21.8422C55.672 21.8422 56.1297 21.7232 56.5552 21.4852C56.9936 21.234 57.3417 20.8637 57.5996 20.3745C57.8574 19.8853 57.9864 19.2903 57.9864 18.5895C57.9864 17.545 57.7156 16.745 57.1741 16.1897C56.6455 15.6211 55.9943 15.3368 55.2207 15.3368C54.4471 15.3368 53.796 15.6211 53.2674 16.1897C52.7516 16.745 52.4938 17.545 52.4938 18.5895C52.4938 19.6341 52.7452 20.4406 53.248 21.0092C53.7638 21.5645 54.4084 21.8422 55.182 21.8422Z" fill="#101828"/>
<path d="M72.8724 13.0957V24.0833H70.1455V22.695C69.7973 23.171 69.3396 23.5478 68.7723 23.8255C68.2179 24.09 67.6119 24.2222 66.9543 24.2222C66.1163 24.2222 65.3749 24.0437 64.7302 23.6867C64.0855 23.3165 63.5762 22.781 63.2023 22.0802C62.8413 21.3662 62.6608 20.52 62.6608 19.5415V13.0957H65.3684V19.1448C65.3684 20.0175 65.5812 20.6918 66.0067 21.1678C66.4322 21.6306 67.0124 21.862 67.7473 21.862C68.4951 21.862 69.0818 21.6306 69.5072 21.1678C69.9327 20.6918 70.1455 20.0175 70.1455 19.1448V13.0957H72.8724Z" fill="#101828"/>
<path d="M78.2516 14.8013C78.5997 14.2196 79.051 13.7634 79.6054 13.4328C80.1727 13.1023 80.8174 12.937 81.5394 12.937V15.8525H80.8238C79.9729 15.8525 79.3282 16.0575 78.8898 16.4673C78.4643 16.8772 78.2516 17.5912 78.2516 18.6093V24.0833H75.5439V13.0957H78.2516V14.8013Z" fill="#101828"/>
<path d="M87.56 12.9172C88.3593 12.9172 89.062 13.0825 89.668 13.413C90.274 13.7303 90.7511 14.1468 91.0992 14.6625V13.0957H93.8262V24.1627C93.8262 25.1808 93.6263 26.0865 93.2266 26.8798C92.8269 27.6864 92.2274 28.3211 91.428 28.7838C90.6286 29.2598 89.6616 29.4978 88.527 29.4978C87.0055 29.4978 85.7549 29.1342 84.775 28.407C83.808 27.6798 83.26 26.6881 83.131 25.432H85.8193C85.9612 25.9345 86.2642 26.3311 86.7283 26.622C87.2054 26.9261 87.7791 27.0782 88.4496 27.0782C89.2361 27.0782 89.8743 26.8336 90.3643 26.3443C90.8542 25.8683 91.0992 25.1411 91.0992 24.1627V22.457C90.7511 22.9727 90.2676 23.4024 89.6487 23.7462C89.0427 24.09 88.3465 24.2618 87.56 24.2618C86.6574 24.2618 85.8322 24.0238 85.0844 23.5478C84.3366 23.0718 83.7435 22.4041 83.3051 21.5447C82.8796 20.672 82.6669 19.6737 82.6669 18.5498C82.6669 17.4392 82.8796 16.4541 83.3051 15.5947C83.7435 14.7352 84.3301 14.0741 85.0651 13.6113C85.8129 13.1486 86.6445 12.9172 87.56 12.9172ZM91.0992 18.5895C91.0992 17.9152 90.9703 17.34 90.7124 16.864C90.4545 16.3748 90.1064 16.0046 89.668 15.7533C89.2297 15.4889 88.759 15.3567 88.2562 15.3567C87.7534 15.3567 87.2892 15.4823 86.8637 15.7335C86.4382 15.9847 86.0901 16.355 85.8193 16.8442C85.5615 17.3202 85.4325 17.8887 85.4325 18.5498C85.4325 19.211 85.5615 19.7927 85.8193 20.2952C86.0901 20.7844 86.4382 21.1612 86.8637 21.4257C87.3021 21.6901 87.7662 21.8223 88.2562 21.8223C88.759 21.8223 89.2297 21.6967 89.668 21.4455C90.1064 21.1811 90.4545 20.8108 90.7124 20.3348C90.9703 19.8456 91.0992 19.2638 91.0992 18.5895Z" fill="#101828"/>
<path d="M99.1783 9.40668V24.0833H96.4706V9.40668H99.1783Z" fill="#101828"/>
<path d="M101.157 18.5498C101.157 17.4392 101.37 16.4541 101.795 15.5947C102.234 14.7352 102.82 14.0741 103.555 13.6113C104.303 13.1486 105.135 12.9172 106.05 12.9172C106.85 12.9172 107.546 13.0825 108.139 13.413C108.745 13.7436 109.228 14.1601 109.589 14.6625V13.0957H112.316V24.0833H109.589V22.4768C109.241 22.9925 108.758 23.4222 108.139 23.766C107.533 24.0966 106.83 24.2618 106.031 24.2618C105.128 24.2618 104.303 24.0238 103.555 23.5478C102.82 23.0718 102.234 22.4041 101.795 21.5447C101.37 20.672 101.157 19.6737 101.157 18.5498ZM109.589 18.5895C109.589 17.9152 109.461 17.34 109.203 16.864C108.945 16.3748 108.597 16.0046 108.158 15.7533C107.72 15.4889 107.249 15.3567 106.746 15.3567C106.244 15.3567 105.779 15.4823 105.354 15.7335C104.929 15.9847 104.58 16.355 104.31 16.8442C104.052 17.3202 103.923 17.8887 103.923 18.5498C103.923 19.211 104.052 19.7927 104.31 20.2952C104.58 20.7844 104.929 21.1612 105.354 21.4257C105.792 21.6901 106.257 21.8223 106.746 21.8223C107.249 21.8223 107.72 21.6967 108.158 21.4455C108.597 21.1811 108.945 20.8108 109.203 20.3348C109.461 19.8456 109.589 19.2638 109.589 18.5895Z" fill="#101828"/>
<path d="M119.061 24.2618C118.184 24.2618 117.398 24.1032 116.702 23.7858C116.005 23.4553 115.451 23.0123 115.038 22.457C114.639 21.9017 114.419 21.2868 114.381 20.6125H117.108C117.159 21.0356 117.359 21.386 117.707 21.6637C118.068 21.9413 118.513 22.0802 119.042 22.0802C119.557 22.0802 119.957 21.9744 120.241 21.7628C120.537 21.5513 120.686 21.2802 120.686 20.9497C120.686 20.5927 120.505 20.3282 120.144 20.1563C119.796 19.9712 119.235 19.7729 118.462 19.5613C117.662 19.363 117.005 19.1581 116.489 18.9465C115.986 18.735 115.548 18.411 115.174 17.9747C114.813 17.5383 114.632 16.95 114.632 16.2095C114.632 15.6013 114.8 15.046 115.135 14.5435C115.483 14.0411 115.973 13.6444 116.605 13.3535C117.25 13.0626 118.004 12.9172 118.868 12.9172C120.144 12.9172 121.163 13.2477 121.923 13.9088C122.684 14.5567 123.103 15.436 123.181 16.5467H120.589C120.55 16.1103 120.37 15.7666 120.047 15.5153C119.738 15.2509 119.319 15.1187 118.79 15.1187C118.3 15.1187 117.92 15.2112 117.649 15.3963C117.391 15.5815 117.262 15.8393 117.262 16.1698C117.262 16.5401 117.443 16.8243 117.804 17.0227C118.165 17.2078 118.726 17.3995 119.487 17.5978C120.26 17.7962 120.898 18.0011 121.401 18.2127C121.904 18.4242 122.336 18.7548 122.697 19.2043C123.071 19.6407 123.264 20.2225 123.277 20.9497C123.277 21.5843 123.103 22.1529 122.755 22.6553C122.42 23.1578 121.93 23.5545 121.285 23.8453C120.653 24.123 119.912 24.2618 119.061 24.2618Z" fill="#101828"/>
<path d="M129.6 24.2618C128.723 24.2618 127.937 24.1032 127.24 23.7858C126.544 23.4553 125.99 23.0123 125.577 22.457C125.177 21.9017 124.958 21.2868 124.92 20.6125H127.647C127.698 21.0356 127.898 21.386 128.246 21.6637C128.607 21.9413 129.052 22.0802 129.581 22.0802C130.096 22.0802 130.496 21.9744 130.78 21.7628C131.076 21.5513 131.225 21.2802 131.225 20.9497C131.225 20.5927 131.044 20.3282 130.683 20.1563C130.335 19.9712 129.774 19.7729 129 19.5613C128.201 19.363 127.543 19.1581 127.028 18.9465C126.525 18.735 126.086 18.411 125.713 17.9747C125.352 17.5383 125.171 16.95 125.171 16.2095C125.171 15.6013 125.339 15.046 125.674 14.5435C126.022 14.0411 126.512 13.6444 127.144 13.3535C127.788 13.0626 128.543 12.9172 129.407 12.9172C130.683 12.9172 131.702 13.2477 132.462 13.9088C133.223 14.5567 133.642 15.436 133.719 16.5467H131.128C131.089 16.1103 130.909 15.7666 130.586 15.5153C130.277 15.2509 129.858 15.1187 129.329 15.1187C128.839 15.1187 128.459 15.2112 128.188 15.3963C127.93 15.5815 127.801 15.8393 127.801 16.1698C127.801 16.5401 127.982 16.8243 128.343 17.0227C128.704 17.2078 129.265 17.3995 130.025 17.5978C130.799 17.7962 131.437 18.0011 131.94 18.2127C132.443 18.4242 132.875 18.7548 133.236 19.2043C133.61 19.6407 133.803 20.2225 133.816 20.9497C133.816 21.5843 133.642 22.1529 133.294 22.6553C132.959 23.1578 132.469 23.5545 131.824 23.8453C131.192 24.123 130.451 24.2618 129.6 24.2618Z" fill="#101828"/>
</g>
</svg>
