<svg width="111" height="18" viewBox="0 0 111 18" fill="none" xmlns="http://www.w3.org/2000/svg">
<path d="M0 3.42614V0.306819H12.5457V3.42614H8.02925V17.6932H4.56663V3.42614H0Z" fill="white"/>
<path d="M14.7379 17.6932V0.306819H25.7781V3.375H18.2005V7.44034H24.2726V10.4574H18.2005V14.625H25.7781V17.6932H14.7379Z" fill="white"/>
<path d="M39.3231 17.4119C37.55 17.804 35.9525 18 34.5307 18C33.1088 18 31.9713 17.821 31.1182 17.4631C30.2651 17.1051 29.596 16.5341 29.1109 15.75C28.6258 14.9659 28.2913 14.0455 28.1073 12.9886C27.9233 11.9318 27.8313 10.6023 27.8313 9C27.8313 5.64205 28.2913 3.30682 29.2113 1.99432C30.148 0.664773 31.8626 0 34.355 0C35.7936 0 37.458 0.230114 39.3482 0.690341L39.2478 3.50284C37.5918 3.24716 36.2118 3.11932 35.1078 3.11932C34.0205 3.11932 33.2426 3.27273 32.7743 3.57955C32.3059 3.86932 31.9546 4.43182 31.7204 5.26705C31.503 6.10227 31.3942 7.52557 31.3942 9.53693C31.3942 11.5483 31.6201 12.946 32.0717 13.7301C32.5401 14.4972 33.4601 14.8807 34.8318 14.8807C36.2201 14.8807 37.6922 14.7614 39.2478 14.5227L39.3231 17.4119Z" fill="white"/>
<path d="M51.9433 17.6932V10.483H45.5952V17.6932H42.1326V0.306819H45.5952V7.41477H51.9433V0.306819H55.4059V17.6932H51.9433Z" fill="white"/>
<path d="M59.1134 17.6932V0.306819H70.003V3.375H62.576V8.48864H68.6481V11.5568H62.576V17.6932H59.1134Z" fill="white"/>
<path d="M72.4432 17.6932V0.306819H83.4834V3.375H75.9058V7.44034H81.9779V10.4574H75.9058V14.625H83.4834V17.6932H72.4432Z" fill="white"/>
<path d="M91.5806 3.06818C89.7573 3.06818 88.8457 3.68182 88.8457 4.90909C88.8457 5.45455 89.0715 5.87216 89.5231 6.16193C89.9748 6.4517 91.0286 6.86932 92.6847 7.41477C94.3574 7.96023 95.5284 8.58239 96.1975 9.28125C96.8666 9.96307 97.2011 11.0199 97.2011 12.4517C97.2011 14.2756 96.6575 15.6563 95.5702 16.5938C94.4829 17.5312 93.061 18 91.3046 18C89.9999 18 88.4024 17.7955 86.5122 17.3864L85.6089 17.2074L85.9602 14.4716C88.2017 14.7784 89.9162 14.9318 91.1039 14.9318C92.877 14.9318 93.7636 14.1818 93.7636 12.6818C93.7636 12.1364 93.5545 11.7102 93.1363 11.4034C92.7348 11.0966 91.9236 10.7642 90.7024 10.4062C88.762 9.84375 87.3904 9.17898 86.5875 8.41193C85.8013 7.62784 85.4082 6.54545 85.4082 5.16477C85.4082 3.42614 85.9267 2.13068 86.9638 1.27841C88.0009 0.426136 89.4228 0 91.2294 0C92.4672 0 94.0396 0.170454 95.9465 0.511363L96.8498 0.690341L96.5738 3.47727C94.2152 3.20455 92.5508 3.06818 91.5806 3.06818Z" fill="white"/>
<path d="M98.4543 3.42614V0.306819H111V3.42614H106.484V17.6932H103.021V3.42614H98.4543Z" fill="white"/>
</svg>
