<svg width="16" height="14" viewBox="0 0 16 14" fill="none" xmlns="http://www.w3.org/2000/svg">
<path d="M5.21885 13.0942C10.8778 13.0942 13.9739 8.40465 13.9739 4.33912C13.9739 4.20729 13.971 4.07252 13.9651 3.94068C14.5674 3.50512 15.0872 2.96562 15.5 2.34752C14.9391 2.59708 14.3435 2.76007 13.7337 2.83092C14.3758 2.44603 14.8566 1.84138 15.0869 1.12906C14.4828 1.48706 13.8222 1.73959 13.1334 1.87584C12.6693 1.38268 12.0556 1.05616 11.3873 0.94674C10.719 0.837324 10.0332 0.951114 9.43609 1.27052C8.83893 1.58992 8.36363 2.09715 8.08365 2.71378C7.80368 3.33041 7.73464 4.02209 7.88721 4.68189C6.66406 4.62051 5.46746 4.30277 4.37499 3.74927C3.28252 3.19577 2.31856 2.41886 1.54561 1.46891C1.15275 2.14624 1.03254 2.94774 1.20939 3.71052C1.38625 4.47329 1.84691 5.14011 2.49775 5.57545C2.00914 5.55994 1.53123 5.42838 1.10352 5.19166V5.22975C1.10308 5.94055 1.34881 6.62958 1.79894 7.17969C2.24908 7.7298 2.87583 8.10706 3.57266 8.24732C3.12003 8.37116 2.64499 8.38921 2.18428 8.30006C2.38091 8.91136 2.76348 9.44602 3.27861 9.82942C3.79373 10.2128 4.4157 10.4258 5.05771 10.4387C3.96777 11.2949 2.62136 11.7593 1.23535 11.7571C0.989554 11.7567 0.743999 11.7416 0.5 11.712C1.90804 12.6153 3.54596 13.0951 5.21885 13.0942Z" fill="white"/>
</svg>
