<svg width="16" height="14" viewBox="0 0 16 14" fill="none" xmlns="http://www.w3.org/2000/svg">
<path d="M5.21885 13.094C10.8778 13.094 13.9739 8.4044 13.9739 4.33888C13.9739 4.20704 13.971 4.07228 13.9651 3.94044C14.5674 3.50488 15.0872 2.96537 15.5 2.34728C14.9391 2.59684 14.3435 2.75983 13.7337 2.83067C14.3758 2.44578 14.8566 1.84113 15.0869 1.12882C14.4828 1.48681 13.8222 1.73935 13.1334 1.8756C12.6693 1.38244 12.0556 1.05591 11.3873 0.946496C10.719 0.83708 10.0332 0.95087 9.43609 1.27027C8.83893 1.58968 8.36362 2.0969 8.08365 2.71353C7.80368 3.33016 7.73464 4.02185 7.88721 4.68165C6.66406 4.62027 5.46746 4.30253 4.37499 3.74903C3.28252 3.19552 2.31856 2.41861 1.54561 1.46866C1.15275 2.14599 1.03254 2.94749 1.20939 3.71027C1.38625 4.47305 1.84691 5.13987 2.49775 5.57521C2.00914 5.55969 1.53123 5.42814 1.10352 5.19142V5.2295C1.10308 5.94031 1.34881 6.62933 1.79894 7.17945C2.24908 7.72956 2.87583 8.10681 3.57266 8.24708C3.12003 8.37092 2.64499 8.38896 2.18428 8.29981C2.38091 8.91111 2.76348 9.44577 3.27861 9.82917C3.79373 10.2126 4.4157 10.4256 5.05772 10.4385C3.96777 11.2947 2.62136 11.759 1.23535 11.7568C0.989554 11.7565 0.743999 11.7414 0.5 11.7117C1.90804 12.6151 3.54596 13.0948 5.21885 13.094Z" fill="white"/>
</svg>
