<svg width="17" height="12" viewBox="0 0 17 12" fill="none" xmlns="http://www.w3.org/2000/svg">
<path d="M16.8307 2.58928C16.8307 2.58928 16.6646 1.41294 16.1533 0.896418C15.5059 0.216607 14.782 0.213274 14.45 0.173285C12.0727 -9.53409e-08 8.50332 0 8.50332 0H8.49668C8.49668 0 4.92734 -9.53409e-08 2.55 0.173285C2.21797 0.213274 1.49414 0.216607 0.84668 0.896418C0.335352 1.41294 0.172656 2.58928 0.172656 2.58928C0.172656 2.58928 0 3.97223 0 5.35185V6.64482C0 8.02444 0.169336 9.40739 0.169336 9.40739C0.169336 9.40739 0.335351 10.5837 0.843359 11.1003C1.49082 11.7801 2.34082 11.7567 2.71934 11.83C4.08066 11.96 8.5 12 8.5 12C8.5 12 12.0727 11.9933 14.45 11.8234C14.782 11.7834 15.5059 11.7801 16.1533 11.1003C16.6646 10.5837 16.8307 9.40739 16.8307 9.40739C16.8307 9.40739 17 8.02777 17 6.64482V5.35185C17 3.97223 16.8307 2.58928 16.8307 2.58928ZM6.74356 8.21438V3.41905L11.3355 5.82505L6.74356 8.21438Z" fill="#666666"/>
</svg>
